File size                                : 1.09 GiB
Duration                                 : 1h 7mn
Overall bit rate                         : 2 302 Kbps

Video
ID                                       : 0
Format                                   : MPEG-4 Visual
Format profile                           : Advanced Simple@L5
Format settings, BVOP                    : 2
Format settings, QPel                    : No
Format settings, GMC                     : No warppoints
Format settings, Matrix                  : Default (H.263)
Codec ID                                 : XVID
Codec ID/Hint                            : XviD
Duration                                 : 1h 7mn
Bit rate                                 : 1 910 Kbps
Width                                    : 720 pixels
Height                                   : 400 pixels
Display aspect ratio                     : 16:9
Frame rate                               : 23.976 fps
Color space                              : YUV
Chroma subsampling                       : 4:2:0
Bit depth                                : 8 bits
Scan type                                : Progressive
Compression mode                         : Lossy
Bits/(Pixel*Frame)                       : 0.277
Stream size                              : 925 MiB (83%)
Writing library                          : XviD 1.2.1 (UTC 2008-12-04)

Audio
ID                                       : 1
Format                                   : AC-3
Format/Info                              : Audio Coding 3
Mode extension                           : CM (complete main)
Format settings, Endianness              : Big
Codec ID                                 : 2000
Duration                                 : 1h 7mn
Bit rate mode                            : Constant
Bit rate                                 : 384 Kbps
Channel(s)                               : 6 channels
Channel positions                        : Front: L C R, Side: L R, LFE
Sampling rate                            : 48.0 KHz
Bit depth                                : 16 bits
Compression mode                         : Lossy
Stream size                              : 186 MiB (17%)
Alignment                                : Aligned on interleaves
Interleave, duration                     : 64 ms (1.53 video frames)
Interleave, preload duration             : 192 ms
Title                                    : Madly Madagascar 2013 720p WEB-DL DD5.1 H.264 - [0] English_new



IMDB 
http://www.imdb.com/title/tt2702348

source &gt;&gt;&gt;&gt;&gt;&gt;

sample provided

Screens:
 
http://i.imgur.com/wrkNZUw.png 
http://i.imgur.com/XgRSlGk.png 
http://i.imgur.com/RPTtWz5.png 
http://i.imgur.com/cTuVPkn.png 
http://i.imgur.com/tE4L4uK.png